<?xml version="1.0" encoding="UTF-8"?>
<!DOCTYPE svg PUBLIC "-//W3C//DTD SVG 1.1//EN" "http://www.w3.org/Graphics/SVG/1.1/DTD/svg11.dtd">
<!-- Creator: CorelDRAW 2020 (64-Bit) -->
<svg xmlns="http://www.w3.org/2000/svg" xml:space="preserve" width="0.930843in" height="0.833224in" version="1.1" style="shape-rendering:geometricPrecision; text-rendering:geometricPrecision; image-rendering:optimizeQuality; fill-rule:evenodd; clip-rule:evenodd"
viewBox="0 0 1042.35 933.04"
 xmlns:xlink="http://www.w3.org/1999/xlink"
 xmlns:xodm="http://www.corel.com/coreldraw/odm/2003">
 <defs>
  <style type="text/css">
   <![CDATA[
    .str0 {stroke:#373435;stroke-width:23.33;stroke-miterlimit:2.61313}
    .fil1 {fill:none}
    .fil0 {fill:black}
   ]]>
  </style>
 </defs>
 <g id="Layer_x0020_1">
  <metadata id="CorelCorpID_0Corel-Layer"/>
  <g id="_2792889331472">
   <g>
    <path class="fil0" d="M36.05 855.29l0 -404.32c0,-35.83 10.82,-46.65 46.65,-46.65l653.13 0c35.83,0 46.65,10.82 46.65,46.65l0 404.32c0,35.83 -10.82,46.65 -46.65,46.65l-653.13 0c-35.83,0 -46.65,-10.82 -46.65,-46.65zm186.6 -528.72c0,-115.67 73.65,-202.16 186.61,-202.16 112.96,0 186.61,86.49 186.61,202.16l0 46.65 -373.22 0 0 -46.65zm248.81 -279.91c156.11,12.99 217.71,152.39 217.71,326.57l-62.21 0c0,-345.1 -136.56,-178.89 -155.51,-326.57zm-93.3 -15.55l62.21 0 0 62.2 -62.21 0 0 -62.2zm-186.6 264.36l0 77.76 -62.21 0c0,-174.18 61.6,-313.57 217.71,-326.57 -7.5,90.17 -21.79,30.9 -98.5,103.66 -39.56,37.52 -57,74.12 -57,145.15zm-93.3 -15.55l0 93.3c-130.68,0 -93.3,-31.14 -93.3,513.17 0,35.83 10.82,46.65 46.65,46.65l715.33 0c35.83,0 46.65,-10.82 46.65,-46.65l0 -466.52c0,-55.28 -30.3,-46.65 -93.3,-46.65 0,-237.77 -61.13,-373.22 -342.12,-373.22 -150.84,0 -279.91,129.07 -279.91,279.91z"/>
    <polygon class="fil0" points="67.15,870.84 626.98,870.84 626.98,839.74 67.15,839.74 "/>
    <polygon class="fil0" points="160.46,653.13 222.66,653.13 222.66,590.93 160.46,590.93 "/>
    <polygon class="fil0" points="300.41,653.13 362.62,653.13 362.62,590.93 300.41,590.93 "/>
    <polygon class="fil0" points="440.37,653.13 502.57,653.13 502.57,590.93 440.37,590.93 "/>
    <polygon class="fil0" points="658.08,870.84 751.38,870.84 751.38,839.74 658.08,839.74 "/>
    <path class="fil1 str0" d="M572.85 617.71c146.69,218.61 298.53,214.19 454.92,10.93 -143.2,-195.92 -294.23,-213.56 -454.92,-10.93z"/>
    <ellipse class="fil1 str0" cx="802.03" cy="628.44" rx="71.44" ry="73.11"/>
   </g>
   <line class="fil1 str0" x1="1025.26" y1="410.53" x2="546.53" y2= "808.45" />
  </g>
 </g>
</svg>
