<?xml version="1.0" encoding="UTF-8"?>
<!DOCTYPE svg PUBLIC "-//W3C//DTD SVG 1.1//EN" "http://www.w3.org/Graphics/SVG/1.1/DTD/svg11.dtd">
<!-- Creator: CorelDRAW 2020 (64-Bit) -->
<svg xmlns="http://www.w3.org/2000/svg" xml:space="preserve" width="0.726547in" height="0.833224in" version="1.1" style="shape-rendering:geometricPrecision; text-rendering:geometricPrecision; image-rendering:optimizeQuality; fill-rule:evenodd; clip-rule:evenodd"
viewBox="0 0 128.96 147.9"
 xmlns:xlink="http://www.w3.org/1999/xlink"
 xmlns:xodm="http://www.corel.com/coreldraw/odm/2003">
 <defs>
  <style type="text/css">
   <![CDATA[
    .fil0 {fill:black}
   ]]>
  </style>
 </defs>
 <g id="Layer_x0020_1">
  <metadata id="CorelCorpID_0Corel-Layer"/>
  <g id="_2130418753712">
   <path class="fil0" d="M5.71 135.57l0 -64.09c0,-5.68 1.71,-7.39 7.39,-7.39l103.53 0c5.68,0 7.39,1.72 7.39,7.39l0 64.09c0,5.68 -1.72,7.39 -7.39,7.39l-103.53 0c-5.68,0 -7.39,-1.71 -7.39,-7.39zm29.58 -83.81c0,-18.33 11.67,-32.04 29.58,-32.04 17.91,0 29.58,13.71 29.58,32.04l0 7.39 -59.16 0 0 -7.39zm39.44 -44.37c24.75,2.06 34.51,24.16 34.51,51.76l-9.86 0c0,-54.7 -21.65,-28.36 -24.65,-51.76zm-14.79 -2.46l9.86 0 0 9.86 -9.86 0 0 -9.86zm-29.58 41.9l0 12.33 -9.86 0c0,-27.61 9.76,-49.71 34.51,-51.76 -1.19,14.29 -3.45,4.9 -15.61,16.43 -6.27,5.95 -9.04,11.75 -9.04,23.01zm-14.79 -2.46l0 14.79c-20.71,0 -14.79,-4.94 -14.79,81.34 0,5.68 1.71,7.39 7.39,7.39l113.39 0c5.68,0 7.39,-1.72 7.39,-7.39l0 -73.95c0,-8.76 -4.8,-7.39 -14.79,-7.39 0,-37.69 -9.69,-59.16 -54.23,-59.16 -23.91,0 -44.37,20.46 -44.37,44.37z"/>
   <polygon class="fil0" points="10.64,138.04 99.38,138.04 99.38,133.11 10.64,133.11 "/>
   <polygon class="fil0" points="25.43,103.53 35.29,103.53 35.29,93.67 25.43,93.67 "/>
   <polygon class="fil0" points="47.62,103.53 57.48,103.53 57.48,93.67 47.62,93.67 "/>
   <polygon class="fil0" points="69.8,103.53 79.66,103.53 79.66,93.67 69.8,93.67 "/>
   <polygon class="fil0" points="104.31,138.04 119.1,138.04 119.1,133.11 104.31,133.11 "/>
   <polygon class="fil0" points="92.88,103.53 102.74,103.53 102.74,93.67 92.88,93.67 "/>
  </g>
 </g>
</svg>
